<svg width="130" height="130" viewBox="0 0 130 130" fill="none" xmlns="http://www.w3.org/2000/svg">
<g clip-path="url(#clip0_110_213)">
<path d="M65 12.1875C54.5547 12.1875 44.3439 15.2849 35.659 21.088C26.974 26.8911 20.2049 35.1393 16.2076 44.7895C12.2104 54.4398 11.1645 65.0586 13.2023 75.3032C15.2401 85.5478 20.27 94.9581 27.6559 102.344C35.0419 109.73 44.4522 114.76 54.6968 116.798C64.9414 118.836 75.5603 117.79 85.2105 113.792C94.8607 109.795 103.109 103.026 108.912 94.341C114.715 85.6561 117.813 75.4453 117.813 65C117.796 50.9982 112.227 37.5745 102.326 27.6737C92.4255 17.773 79.0018 12.2036 65 12.1875ZM104.792 44.6875H86.6887C84.4089 36.3234 80.5665 28.4663 75.3645 21.5313C81.6497 23.0411 87.5342 25.8922 92.6144 29.8891C97.6947 33.886 101.851 38.9341 104.797 44.6875H104.792ZM109.688 65C109.691 69.1212 109.122 73.2229 107.997 77.1875H88.4407C89.6865 69.1103 89.6865 60.8897 88.4407 52.8125H107.997C109.122 56.7771 109.691 60.8788 109.688 65ZM65 21.8359C71.0832 28.3487 75.599 36.1646 78.2031 44.6875H51.7969C54.3984 36.1634 58.9145 28.347 65 21.8359ZM51.7969 85.3125H78.2031C75.6017 93.8366 71.0855 101.653 65 108.164C58.9168 101.651 54.401 93.8354 51.7969 85.3125ZM49.8164 77.1875C48.4217 69.1224 48.4217 60.8776 49.8164 52.8125H80.2242C81.619 60.8776 81.619 69.1224 80.2242 77.1875H49.8164ZM75.3848 108.469C80.5868 101.534 84.4292 93.6766 86.709 85.3125H104.818C101.869 91.0681 97.7097 96.1176 92.6258 100.115C87.5418 104.112 81.6534 106.962 75.3645 108.469H75.3848Z" fill="#FF33A3"/>
</g>
<defs>
<clipPath id="clip0_110_213">
<rect width="130" height="130" fill="white"/>
</clipPath>
</defs>
</svg>
