<svg width="130" height="127" viewBox="0 0 130 127" fill="none" xmlns="http://www.w3.org/2000/svg">
<path d="M89.375 11.8184H40.625C33.0854 11.8262 25.8569 14.734 20.5256 19.9038C15.1942 25.0735 12.1956 32.083 12.1875 39.3941V86.6668C12.1956 93.978 15.1942 100.987 20.5256 106.157C25.8569 111.327 33.0854 114.235 40.625 114.243H89.375C96.9146 114.235 104.143 111.327 109.474 106.157C114.806 100.987 117.804 93.978 117.812 86.6668V39.3941C117.804 32.083 114.806 25.0735 109.474 19.9038C104.143 14.734 96.9146 11.8262 89.375 11.8184ZM65 86.6668C60.1791 86.6668 55.4664 85.2806 51.458 82.6834C47.4495 80.0862 44.3253 76.3947 42.4804 72.0757C40.6356 67.7567 40.1528 63.0043 41.0934 58.4193C42.0339 53.8342 44.3554 49.6227 47.7643 46.317C51.1732 43.0114 55.5164 40.7603 60.2447 39.8483C64.973 38.9363 69.874 39.4043 74.3279 41.1933C78.7819 42.9823 82.5887 46.0118 85.2671 49.8988C87.9454 53.7858 89.375 58.3556 89.375 63.0305C89.3683 69.2972 86.7981 75.3054 82.2283 79.7367C77.6586 84.168 71.4626 86.6603 65 86.6668ZM95.4688 39.3941C94.2635 39.3941 93.0854 39.0476 92.0832 38.3983C91.0811 37.749 90.3001 36.8261 89.8389 35.7463C89.3776 34.6666 89.257 33.4785 89.4921 32.3322C89.7272 31.186 90.3076 30.1331 91.1598 29.3067C92.012 28.4803 93.0978 27.9175 94.2799 27.6895C95.462 27.4615 96.6872 27.5785 97.8007 28.0257C98.9142 28.473 99.8659 29.2304 100.536 30.2021C101.205 31.1739 101.562 32.3163 101.562 33.485C101.562 35.0522 100.92 36.5552 99.7777 37.6634C98.6349 38.7716 97.0849 39.3941 95.4688 39.3941ZM81.25 63.0305C81.25 66.147 80.297 69.1936 78.5114 71.7849C76.7258 74.3762 74.1879 76.3959 71.2186 77.5886C68.2493 78.7812 64.982 79.0933 61.8298 78.4853C58.6776 77.8773 55.7821 76.3765 53.5095 74.1728C51.2369 71.969 49.6892 69.1613 49.0622 66.1046C48.4352 63.048 48.757 59.8796 49.987 57.0003C51.2169 54.121 53.2997 51.66 55.972 49.9285C58.6443 48.1971 61.7861 47.2729 65 47.2729C69.3098 47.2729 73.443 48.9331 76.4905 51.8882C79.5379 54.8433 81.25 58.8513 81.25 63.0305Z" fill="#FF33A3"/>
</svg>
