<svg width="130" height="130" viewBox="0 0 130 130" fill="none" xmlns="http://www.w3.org/2000/svg">
<g clip-path="url(#clip0_110_223)">
<path d="M73.125 48.75V40.625H65C63.9226 40.625 62.8892 41.053 62.1274 41.8149C61.3655 42.5767 60.9375 43.6101 60.9375 44.6875V85.3125C60.9375 86.3899 61.3655 87.4233 62.1274 88.1851C62.8892 88.947 63.9226 89.375 65 89.375H73.125V81.25C73.125 79.0951 73.981 77.0285 75.5048 75.5048C77.0285 73.981 79.0951 73.125 81.25 73.125H105.625C107.78 73.125 109.847 73.981 111.37 75.5048C112.894 77.0285 113.75 79.0951 113.75 81.25V105.625C113.75 107.78 112.894 109.847 111.37 111.37C109.847 112.894 107.78 113.75 105.625 113.75H81.25C79.0951 113.75 77.0285 112.894 75.5048 111.37C73.981 109.847 73.125 107.78 73.125 105.625V97.5H65C61.7677 97.5 58.6677 96.216 56.3821 93.9304C54.0965 91.6448 52.8125 88.5448 52.8125 85.3125V69.0625H36.5625V73.125C36.5625 75.2799 35.7065 77.3465 34.1827 78.8702C32.659 80.394 30.5924 81.25 28.4375 81.25H12.1875C10.0326 81.25 7.96599 80.394 6.44226 78.8702C4.91852 77.3465 4.0625 75.2799 4.0625 73.125V56.875C4.0625 54.7201 4.91852 52.6535 6.44226 51.1298C7.96599 49.606 10.0326 48.75 12.1875 48.75H28.4375C30.5924 48.75 32.659 49.606 34.1827 51.1298C35.7065 52.6535 36.5625 54.7201 36.5625 56.875V60.9375H52.8125V44.6875C52.8125 41.4552 54.0965 38.3552 56.3821 36.0696C58.6677 33.784 61.7677 32.5 65 32.5H73.125V24.375C73.125 22.2201 73.981 20.1535 75.5048 18.6298C77.0285 17.106 79.0951 16.25 81.25 16.25H105.625C107.78 16.25 109.847 17.106 111.37 18.6298C112.894 20.1535 113.75 22.2201 113.75 24.375V48.75C113.75 50.9049 112.894 52.9715 111.37 54.4952C109.847 56.019 107.78 56.875 105.625 56.875H81.25C79.0951 56.875 77.0285 56.019 75.5048 54.4952C73.981 52.9715 73.125 50.9049 73.125 48.75Z" fill="#FF33A3"/>
</g>
<defs>
<clipPath id="clip0_110_223">
<rect width="130" height="130" fill="white"/>
</clipPath>
</defs>
</svg>
