<svg width="130" height="130" viewBox="0 0 130 130" fill="none" xmlns="http://www.w3.org/2000/svg">
<g clip-path="url(#clip0_110_218)">
<path d="M32.561 75.0546C32.5748 75.3298 32.5324 75.6049 32.4365 75.8632C32.3406 76.1214 32.1932 76.3575 32.0032 76.557C31.8132 76.7565 31.5846 76.9153 31.3313 77.0237C31.078 77.1321 30.8053 77.1878 30.5297 77.1874H8.12506C7.20813 77.1888 6.31769 76.88 5.59855 76.3111C4.87941 75.7422 4.37387 74.9468 4.16412 74.0542C4.03351 73.4433 4.03953 72.811 4.18175 72.2026C4.32397 71.5942 4.59886 71.0248 4.98677 70.5351C8.57096 65.7818 13.3265 62.0393 18.7891 59.673C16.3909 57.4863 14.5515 54.7569 13.425 51.7132C12.2985 48.6695 11.9177 45.4002 12.3146 42.1791C12.7114 38.958 13.8743 35.8789 15.7059 33.1996C17.5374 30.5203 19.9843 28.319 22.8416 26.7798C25.6989 25.2407 28.8834 24.4086 32.1284 24.3533C35.3734 24.298 38.5844 25.021 41.4925 26.4618C44.4006 27.9027 46.9211 30.0194 48.8429 32.6346C50.7647 35.2499 52.0319 38.2876 52.5383 41.4933C52.6037 41.9244 52.5265 42.365 52.3184 42.7482C52.1103 43.1314 51.7828 43.4361 51.3856 43.6159C45.7509 46.2209 40.9788 50.3833 37.6325 55.6119C34.2863 60.8405 32.5054 66.9172 32.5001 73.1249C32.5001 73.7749 32.5001 74.4148 32.561 75.0546ZM124.983 70.53C121.407 65.7823 116.662 62.0418 111.211 59.673C113.609 57.4863 115.449 54.7569 116.575 51.7132C117.702 48.6695 118.082 45.4002 117.686 42.1791C117.289 38.958 116.126 35.8789 114.294 33.1996C112.463 30.5203 110.016 28.319 107.159 26.7798C104.301 25.2407 101.117 24.4086 97.8717 24.3533C94.6267 24.298 91.4157 25.021 88.5076 26.4618C85.5996 27.9027 83.079 30.0194 81.1572 32.6346C79.2354 35.2499 77.9682 38.2876 77.4618 41.4933C77.3964 41.9244 77.4736 42.365 77.6817 42.7482C77.8898 43.1314 78.2173 43.4361 78.6145 43.6159C84.2492 46.2209 89.0213 50.3833 92.3676 55.6119C95.7138 60.8405 97.4947 66.9172 97.5001 73.1249C97.5001 73.7749 97.5001 74.4148 97.4391 75.0546C97.4253 75.3298 97.4677 75.6049 97.5636 75.8632C97.6595 76.1214 97.8069 76.3575 97.9969 76.557C98.1869 76.7565 98.4155 76.9153 98.6688 77.0237C98.9222 77.1321 99.1949 77.1878 99.4704 77.1874H121.875C122.792 77.1888 123.682 76.88 124.402 76.3111C125.121 75.7422 125.626 74.9468 125.836 74.0542C125.967 73.4421 125.961 72.8085 125.818 72.1991C125.675 71.5896 125.398 71.0196 125.008 70.53H124.983ZM79.7876 92.4573C83.8325 89.3595 86.8051 85.072 88.2875 80.1975C89.7699 75.323 89.6876 70.1065 88.0521 65.2812C86.4167 60.4559 83.3103 56.2643 79.1696 53.2957C75.0289 50.327 70.062 48.7305 64.967 48.7305C59.8721 48.7305 54.9052 50.327 50.7645 53.2957C46.6238 56.2643 43.5174 60.4559 41.882 65.2812C40.2465 70.1065 40.1642 75.323 41.6466 80.1975C43.129 85.072 46.1016 89.3595 50.1465 92.4573C42.9688 95.5673 36.9752 100.894 33.0434 107.656C32.6868 108.274 32.4991 108.974 32.4991 109.688C32.4992 110.401 32.687 111.101 33.0436 111.719C33.4003 112.337 33.9133 112.849 34.531 113.206C35.1487 113.562 35.8494 113.75 36.5626 113.75H93.4376C94.1507 113.75 94.8514 113.562 95.4691 113.206C96.0868 112.849 96.5998 112.337 96.9565 111.719C97.3131 111.101 97.5009 110.401 97.501 109.688C97.501 108.974 97.3133 108.274 96.9567 107.656C93.0164 100.889 87.0117 95.5625 79.8231 92.4573H79.7876Z" fill="#FF33A3"/>
</g>
<defs>
<clipPath id="clip0_110_218">
<rect width="130" height="130" fill="white"/>
</clipPath>
</defs>
</svg>
