<svg width="130" height="127" viewBox="0 0 130 127" fill="none" xmlns="http://www.w3.org/2000/svg">
<path d="M109.18 108.26C108.83 108.878 108.316 109.393 107.69 109.753C107.065 110.112 106.352 110.302 105.625 110.303H81.25C80.5663 110.303 79.8937 110.136 79.2945 109.816C78.6953 109.497 78.1889 109.036 77.8223 108.476L57.261 77.1434L27.3813 109.013C26.6529 109.772 25.6454 110.222 24.5774 110.265C23.5093 110.308 22.4667 109.941 21.6756 109.244C20.8844 108.547 20.4086 107.576 20.3511 106.541C20.2937 105.505 20.6594 104.49 21.3688 103.715L52.7363 70.2298L20.9473 21.8146C20.5558 21.219 20.3366 20.5323 20.3127 19.8263C20.2889 19.1204 20.4612 18.4212 20.8116 17.802C21.162 17.1828 21.6777 16.6663 22.3046 16.3067C22.9315 15.947 23.6466 15.7575 24.375 15.7578H48.75C49.4337 15.758 50.1064 15.9256 50.7055 16.2449C51.3047 16.5643 51.8111 17.0251 52.1778 17.5847L72.7391 48.9177L102.619 17.048C103.347 16.2892 104.355 15.8395 105.423 15.7962C106.491 15.7529 107.533 16.1196 108.324 16.8168C109.116 17.514 109.591 18.4854 109.649 19.5205C109.706 20.5556 109.341 21.571 108.631 22.3464L77.2637 55.8067L109.053 104.251C109.442 104.847 109.659 105.534 109.682 106.239C109.704 106.944 109.531 107.642 109.18 108.26Z" fill="#FF33A3"/>
</svg>
