<svg width="130" height="127" viewBox="0 0 130 127" fill="none" xmlns="http://www.w3.org/2000/svg">
<path d="M118.996 34.2332C118.517 32.4178 117.6 30.7388 116.321 29.3347C115.042 27.9305 113.436 26.8415 111.637 26.1574C94.2297 19.6377 66.5234 19.6968 65 19.6968C63.4766 19.6968 35.7703 19.6377 18.3625 26.1574C16.5636 26.8415 14.9583 27.9305 13.6789 29.3347C12.3995 30.7388 11.4828 32.4178 11.0043 34.2332C9.68906 39.1476 8.125 48.1294 8.125 63.0301C8.125 77.9309 9.68906 86.9127 11.0043 91.8271C11.4821 93.6433 12.3985 95.3233 13.6779 96.7284C14.9573 98.1334 16.5631 99.2232 18.3625 99.9078C35.0391 106.147 61.1406 106.363 64.6648 106.363H65.3352C68.8594 106.363 94.9762 106.147 111.637 99.9078C113.437 99.2232 115.043 98.1334 116.322 96.7284C117.602 95.3233 118.518 93.6433 118.996 91.8271C120.311 86.9029 121.875 77.9309 121.875 63.0301C121.875 48.1294 120.311 39.1476 118.996 34.2332ZM81.5496 66.2407L61.2371 80.0286C60.6295 80.4414 59.9169 80.6849 59.1767 80.7328C58.4364 80.7807 57.6968 80.6311 57.038 80.3003C56.3792 79.9695 55.8265 79.47 55.4396 78.8562C55.0528 78.2423 54.8467 77.5374 54.8438 76.818V49.2423C54.844 48.5216 55.048 47.8148 55.4337 47.1988C55.8194 46.5828 56.372 46.0812 57.0313 45.7486C57.6906 45.416 58.4313 45.2652 59.1729 45.3125C59.9144 45.3598 60.6284 45.6034 61.2371 46.0169L81.5496 59.8048C82.0839 60.1681 82.5201 60.6509 82.8213 61.2123C83.1224 61.7738 83.2796 62.3973 83.2796 63.0301C83.2796 63.663 83.1224 64.2865 82.8213 64.8479C82.5201 65.4094 82.0839 65.8922 81.5496 66.2555V66.2407Z" fill="#FF33A3"/>
</svg>
